<?xml version="1.0" encoding="UTF-8" standalone="no"?><svg xmlns="http://www.w3.org/2000/svg" xmlns:xlink="http://www.w3.org/1999/xlink" contentScriptType="application/ecmascript" contentStyleType="text/css" height="337px" preserveAspectRatio="none" style="width:399px;height:337px;background:#FFFFFF;" version="1.1" viewBox="0 0 399 337" width="399px" zoomAndPan="magnify"><defs><filter height="300%" id="ferl9zdfdst3d" width="300%" x="-1" y="-1"><feGaussianBlur result="blurOut" stdDeviation="2.0"/><feColorMatrix in="blurOut" result="blurOut2" type="matrix" values="0 0 0 0 0 0 0 0 0 0 0 0 0 0 0 0 0 0 .4 0"/><feOffset dx="4.0" dy="4.0" in="blurOut2" result="blurOut3"/><feBlend in="SourceGraphic" in2="blurOut3" mode="normal"/></filter></defs><g><!--MD5=[ba8e02d77a2743e13e54eb7f0a44039e]
cluster ohm.softa.a10.kitchen--><polygon fill="#FFFFFF" filter="url(#ferl9zdfdst3d)" points="16,6,179,6,186,28.4883,382,28.4883,382,330,16,330,16,6" style="stroke:#000000;stroke-width:1.5;"/><line style="stroke:#000000;stroke-width:1.5;" x1="16" x2="186" y1="28.4883" y2="28.4883"/><text fill="#000000" font-family="sans-serif" font-size="14" font-weight="bold" lengthAdjust="spacing" textLength="157" x="20" y="21.5352">ohm.softa.a10.kitchen</text><!--MD5=[2f49b475ae4beaad1b79ca317a5f8889]
class KitchenHatch--><rect codeLine="3" fill="#FEFECE" filter="url(#ferl9zdfdst3d)" height="151.6406" id="KitchenHatch" style="stroke:#A80036;stroke-width:1.5;" width="207" x="95.5" y="41"/><ellipse cx="151.75" cy="57" fill="#B4A7E5" rx="11" ry="11" style="stroke:#A80036;stroke-width:1.0;"/><path d="M148.1777,53.2651 L148.1777,51.1069 L155.5571,51.1069 L155.5571,53.2651 L153.0918,53.2651 L153.0918,61.3418 L155.5571,61.3418 L155.5571,63.5 L148.1777,63.5 L148.1777,61.3418 L150.6431,61.3418 L150.6431,53.2651 Z " fill="#000000"/><ellipse cx="177.25" cy="56.5" fill="#84BE84" rx="3" ry="3" style="stroke:#038048;stroke-width:1.0;"/><text fill="#000000" font-family="sans-serif" font-size="12" font-style="italic" lengthAdjust="spacing" textLength="75" x="183.25" y="61.5352">KitchenHatch</text><line style="stroke:#A80036;stroke-width:1.5;" x1="96.5" x2="301.5" y1="73" y2="73"/><line style="stroke:#A80036;stroke-width:1.5;" x1="96.5" x2="301.5" y1="81" y2="81"/><text fill="#000000" font-family="sans-serif" font-size="11" lengthAdjust="spacing" textLength="103" x="101.5" y="95.6348">getMaxDishes(): int</text><text fill="#000000" font-family="sans-serif" font-size="11" lengthAdjust="spacing" textLength="110" x="101.5" y="108.5898">getOrderCount(): int</text><text fill="#000000" font-family="sans-serif" font-size="11" lengthAdjust="spacing" textLength="114" x="101.5" y="121.5449">getDishesCount(): int</text><text fill="#000000" font-family="sans-serif" font-size="11" lengthAdjust="spacing" textLength="124" x="101.5" y="134.5">dequeueOrder(): Order</text><text fill="#000000" font-family="sans-serif" font-size="11" lengthAdjust="spacing" textLength="195" x="101.5" y="147.4551">dequeueOrder(timeout: long): Order</text><text fill="#000000" font-family="sans-serif" font-size="11" lengthAdjust="spacing" textLength="108" x="101.5" y="160.4102">dequeueDish(): Dish</text><text fill="#000000" font-family="sans-serif" font-size="11" lengthAdjust="spacing" textLength="179" x="101.5" y="173.3652">dequeueDish(timeout: long): Dish</text><text fill="#000000" font-family="sans-serif" font-size="11" lengthAdjust="spacing" textLength="131" x="101.5" y="186.3203">enqueueDish(dish: Dish)</text><!--MD5=[779be7a296697b4ff134c4dbb3f43d48]
class KitchenHatchImpl--><rect codeLine="14" fill="#FEFECE" filter="url(#ferl9zdfdst3d)" height="60.9551" id="KitchenHatchImpl" style="stroke:#A80036;stroke-width:1.5;" width="333" x="32.5" y="253"/><ellipse cx="139.25" cy="269" fill="#ADD1B2" rx="11" ry="11" style="stroke:#A80036;stroke-width:1.0;"/><path d="M141.7231,275.1431 Q141.1421,275.4419 140.5029,275.5913 Q139.8638,275.7407 139.1582,275.7407 Q136.6514,275.7407 135.3315,274.0889 Q134.0117,272.437 134.0117,269.3159 Q134.0117,266.1865 135.3315,264.5347 Q136.6514,262.8828 139.1582,262.8828 Q139.8638,262.8828 140.5112,263.0322 Q141.1587,263.1816 141.7231,263.4805 L141.7231,266.2031 Q141.0923,265.6221 140.4988,265.3523 Q139.9053,265.0825 139.2744,265.0825 Q137.9297,265.0825 137.2449,266.1492 Q136.5601,267.2158 136.5601,269.3159 Q136.5601,271.4077 137.2449,272.4744 Q137.9297,273.541 139.2744,273.541 Q139.9053,273.541 140.4988,273.2712 Q141.0923,273.0015 141.7231,272.4204 Z " fill="#000000"/><ellipse cx="164.75" cy="268.5" fill="#84BE84" rx="3" ry="3" style="stroke:#038048;stroke-width:1.0;"/><text fill="#000000" font-family="sans-serif" font-size="12" lengthAdjust="spacing" textLength="100" x="170.75" y="273.5352">KitchenHatchImpl</text><line style="stroke:#A80036;stroke-width:1.5;" x1="33.5" x2="364.5" y1="285" y2="285"/><line style="stroke:#A80036;stroke-width:1.5;" x1="33.5" x2="364.5" y1="293" y2="293"/><ellipse cx="43.5" cy="304" fill="#84BE84" rx="3" ry="3" style="stroke:#038048;stroke-width:1.0;"/><text fill="#000000" font-family="sans-serif" font-size="11" lengthAdjust="spacing" textLength="307" x="52.5" y="307.6348">KitchenHatchImpl(maxMeals: int, orders: Deque&lt;Order&gt;)</text><!--MD5=[4aaf8c00e92ed1e2ef82af24ac60b903]
reverse link KitchenHatch to KitchenHatchImpl--><path d="M199,213.4 C199,227.68 199,241.42 199,252.83 " fill="none" id="KitchenHatch-backto-KitchenHatchImpl" style="stroke:#A80036;stroke-width:1.0;stroke-dasharray:7.0,7.0;"/><polygon fill="none" points="192,213.03,199,193.03,206,213.03,192,213.03" style="stroke:#A80036;stroke-width:1.0;"/><!--MD5=[6663e0076370de8aa8f57f40579ebd7d]
@startuml KitchenHatch

package ohm.softa.a10.kitchen {
    +interface KitchenHatch {
        getMaxDishes(): int
        getOrderCount(): int
        getDishesCount(): int
        dequeueOrder(): Order
        dequeueOrder(timeout: long): Order
        dequeueDish(): Dish
        dequeueDish(timeout: long): Dish
        enqueueDish(dish: Dish)
    }

    +class KitchenHatchImpl implements KitchenHatch {
        +KitchenHatchImpl(maxMeals: int, orders: Deque<Order>)
    }
}

@enduml

PlantUML version 1.2021.7(Sun May 23 14:40:07 CEST 2021)
(GPL source distribution)
Java Runtime: OpenJDK Runtime Environment
JVM: OpenJDK 64-Bit Server VM
Default Encoding: UTF-8
Language: en
Country: GB
--></g></svg>