<?xml version="1.0" encoding="UTF-8" standalone="no"?><svg xmlns="http://www.w3.org/2000/svg" xmlns:xlink="http://www.w3.org/1999/xlink" contentScriptType="application/ecmascript" contentStyleType="text/css" height="300px" preserveAspectRatio="none" style="width:555px;height:300px;background:#FFFFFF;" version="1.1" viewBox="0 0 555 300" width="555px" zoomAndPan="magnify"><defs><filter height="300%" id="fp3ti5ir139mb" width="300%" x="-1" y="-1"><feGaussianBlur result="blurOut" stdDeviation="2.0"/><feColorMatrix in="blurOut" result="blurOut2" type="matrix" values="0 0 0 0 0 0 0 0 0 0 0 0 0 0 0 0 0 0 .4 0"/><feOffset dx="4.0" dy="4.0" in="blurOut2" result="blurOut3"/><feBlend in="SourceGraphic" in2="blurOut3" mode="normal"/></filter></defs><g><!--MD5=[aa8f7b917213fcc1c2766e2d59b49067]
cluster java.lang--><polygon fill="#FFFFFF" filter="url(#fp3ti5ir139mb)" points="218,6,287,6,294,28.4883,336,28.4883,336,118,218,118,218,6" style="stroke:#000000;stroke-width:1.5;"/><line style="stroke:#000000;stroke-width:1.5;" x1="218" x2="294" y1="28.4883" y2="28.4883"/><text fill="#000000" font-family="sans-serif" font-size="14" font-weight="bold" lengthAdjust="spacing" textLength="63" x="222" y="21.5352">java.lang</text><!--MD5=[fb4ebc3148718338e4ed85badf0d0b43]
cluster ohm.softa.kitchen.workers--><polygon fill="#FFFFFF" filter="url(#fp3ti5ir139mb)" points="16,142,211,142,218,164.4883,538,164.4883,538,293,16,293,16,142" style="stroke:#000000;stroke-width:1.5;"/><line style="stroke:#000000;stroke-width:1.5;" x1="16" x2="218" y1="164.4883" y2="164.4883"/><text fill="#000000" font-family="sans-serif" font-size="14" font-weight="bold" lengthAdjust="spacing" textLength="189" x="20" y="157.5352">ohm.softa.kitchen.workers</text><!--MD5=[53ae8b34bebe44116eb8626f99f3fe78]
class Runnable--><rect codeLine="3" fill="#FEFECE" filter="url(#fp3ti5ir139mb)" height="60.9551" id="Runnable" style="stroke:#A80036;stroke-width:1.5;" width="86" x="234" y="41"/><ellipse cx="249" cy="57" fill="#B4A7E5" rx="11" ry="11" style="stroke:#A80036;stroke-width:1.0;"/><path d="M245.4277,53.2651 L245.4277,51.1069 L252.8071,51.1069 L252.8071,53.2651 L250.3418,53.2651 L250.3418,61.3418 L252.8071,61.3418 L252.8071,63.5 L245.4277,63.5 L245.4277,61.3418 L247.8931,61.3418 L247.8931,53.2651 Z " fill="#000000"/><text fill="#000000" font-family="sans-serif" font-size="12" font-style="italic" lengthAdjust="spacing" textLength="54" x="263" y="61.5352">Runnable</text><line style="stroke:#A80036;stroke-width:1.5;" x1="235" x2="319" y1="73" y2="73"/><line style="stroke:#A80036;stroke-width:1.5;" x1="235" x2="319" y1="81" y2="81"/><text fill="#000000" font-family="sans-serif" font-size="11" lengthAdjust="spacing" textLength="30" x="240" y="95.6348">run();</text><!--MD5=[1aec0852f4be829138c29247caf07a9f]
class Waiter--><rect codeLine="10" fill="#FEFECE" filter="url(#fp3ti5ir139mb)" height="99.8203" id="Waiter" style="stroke:#A80036;stroke-width:1.5;" width="490" x="32" y="177"/><ellipse cx="249.25" cy="193" fill="#ADD1B2" rx="11" ry="11" style="stroke:#A80036;stroke-width:1.0;"/><path d="M251.7231,199.1431 Q251.1421,199.4419 250.5029,199.5913 Q249.8638,199.7407 249.1582,199.7407 Q246.6514,199.7407 245.3315,198.0889 Q244.0117,196.437 244.0117,193.3159 Q244.0117,190.1865 245.3315,188.5347 Q246.6514,186.8828 249.1582,186.8828 Q249.8638,186.8828 250.5112,187.0322 Q251.1587,187.1816 251.7231,187.4805 L251.7231,190.2031 Q251.0923,189.6221 250.4988,189.3523 Q249.9053,189.0825 249.2744,189.0825 Q247.9297,189.0825 247.2449,190.1492 Q246.5601,191.2158 246.5601,193.3159 Q246.5601,195.4077 247.2449,196.4744 Q247.9297,197.541 249.2744,197.541 Q249.9053,197.541 250.4988,197.2712 Q251.0923,197.0015 251.7231,196.4204 Z " fill="#000000"/><ellipse cx="274.75" cy="192.5" fill="#84BE84" rx="3" ry="3" style="stroke:#038048;stroke-width:1.0;"/><text fill="#000000" font-family="sans-serif" font-size="12" lengthAdjust="spacing" textLength="36" x="280.75" y="197.5352">Waiter</text><line style="stroke:#A80036;stroke-width:1.5;" x1="33" x2="521" y1="209" y2="209"/><rect fill="none" height="6" style="stroke:#C82930;stroke-width:1.0;" width="6" x="40" y="217"/><text fill="#000000" font-family="sans-serif" font-size="11" lengthAdjust="spacing" textLength="67" x="52" y="223.6348">name: String</text><rect fill="none" height="6" style="stroke:#C82930;stroke-width:1.0;" width="6" x="40" y="229.9551"/><text fill="#000000" font-family="sans-serif" font-size="11" lengthAdjust="spacing" textLength="197" x="52" y="236.5898">progressReporter: ProgressReporter</text><rect fill="none" height="6" style="stroke:#C82930;stroke-width:1.0;" width="6" x="40" y="242.9102"/><text fill="#000000" font-family="sans-serif" font-size="11" lengthAdjust="spacing" textLength="147" x="52" y="249.5449">kitchenHatch: KitchenHatch</text><line style="stroke:#A80036;stroke-width:1.5;" x1="33" x2="521" y1="255.8652" y2="255.8652"/><ellipse cx="43" cy="266.8652" fill="#84BE84" rx="3" ry="3" style="stroke:#038048;stroke-width:1.0;"/><text fill="#000000" font-family="sans-serif" font-size="11" lengthAdjust="spacing" textLength="464" x="52" y="270.5">Waiter(name: String, kitchenHatch: KitchenHatch, progressReporter: ProgressReporter)</text><!--MD5=[49e4da1d06a977dbc34f585a0a8a2d18]
reverse link Runnable to Waiter--><path d="M277,122.12 C277,139.66 277,159.37 277,176.86 " fill="none" id="Runnable-backto-Waiter" style="stroke:#A80036;stroke-width:1.0;stroke-dasharray:7.0,7.0;"/><polygon fill="none" points="270,122.1,277,102.1,284,122.1,270,122.1" style="stroke:#A80036;stroke-width:1.0;"/><!--MD5=[0830db27f355d2194188186b1fb5e5a3]
@startuml Waiter

package java.lang {
    interface Runnable {
        run();
    }
}

package ohm.softa.kitchen.workers {

    +class Waiter implements Runnable {
        -name: String
        -progressReporter: ProgressReporter
        -kitchenHatch: KitchenHatch
        +Waiter(name: String, kitchenHatch: KitchenHatch, progressReporter: ProgressReporter)
    }
}

@enduml

PlantUML version 1.2021.7(Sun May 23 14:40:07 CEST 2021)
(GPL source distribution)
Java Runtime: OpenJDK Runtime Environment
JVM: OpenJDK 64-Bit Server VM
Default Encoding: UTF-8
Language: en
Country: GB
--></g></svg>